<svg xmlns="http://www.w3.org/2000/svg" viewBox="0 0 120 100" fill="none" stroke="currentColor" stroke-width="1.8" stroke-linecap="round" stroke-linejoin="round">
  <!-- Skyline sinistra -->
  <polyline points="2,72 2,60 8,60 8,54 14,54 14,60 20,60 20,68"/>
  <!-- Tempio centrale -->
  <rect x="30" y="52" width="60" height="28" stroke-width="1.5"/>
  <!-- Colonne -->
  <line x1="37" y1="52" x2="37" y2="80"/>
  <line x1="45" y1="52" x2="45" y2="80"/>
  <line x1="53" y1="52" x2="53" y2="80"/>
  <line x1="61" y1="52" x2="61" y2="80"/>
  <line x1="69" y1="52" x2="69" y2="80"/>
  <line x1="77" y1="52" x2="77" y2="80"/>
  <line x1="83" y1="52" x2="83" y2="80"/>
  <!-- Frontone -->
  <polyline points="26,52 60,32 94,52"/>
  <!-- Base tempio -->
  <line x1="26" y1="80" x2="94" y2="80"/>
  <line x1="24" y1="83" x2="96" y2="83"/>
  <!-- Skyline destra -->
  <polyline points="100,72 100,60 106,60 106,54 112,54 112,60 118,60 118,72"/>
  <!-- Cupola destra -->
  <path d="M 104,60 Q 109,52 114,60"/>
  <!-- Testo GiuAdel casa -->
  <text x="60" y="94" font-family="Georgia, serif" font-size="10" text-anchor="middle" stroke="none" fill="currentColor">GiuAdel casa Palermo</text>
</svg>
